<?xml version="1.0" standalone="no"?>
<!DOCTYPE svg PUBLIC "-//W3C//DTD SVG 20010904//EN"
 "http://www.w3.org/TR/2001/REC-SVG-20010904/DTD/svg10.dtd">
<svg version="1.0" xmlns="http://www.w3.org/2000/svg"
 width="429.000000pt" height="147.000000pt" viewBox="0 0 429.000000 147.000000"
 preserveAspectRatio="xMidYMid meet">

<g className="color-me" transform="translate(0.000000,147.000000) scale(0.100000,-0.100000)"
fill="#000000" stroke="none">
<path d="M1865 1280 c-4 -7 53 -10 164 -10 147 0 171 -2 171 -15 0 -9 -6 -17
-12 -19 -81 -23 -110 -40 -131 -77 l-22 -39 -72 0 c-40 0 -73 4 -73 9 0 19
-32 41 -59 41 -35 0 -51 -17 -51 -55 0 -17 5 -36 12 -43 17 -17 64 -15 82 4
15 14 22 13 87 -8 l71 -23 17 -52 c26 -77 86 -146 145 -166 5 -2 5 -15 -1 -32
-9 -29 -13 -30 -79 -36 -38 -3 34 -6 162 -7 197 -2 233 0 244 13 7 9 10 19 6
23 -4 4 -12 -1 -17 -11 -6 -11 -22 -17 -44 -17 -27 0 -35 5 -43 28 -9 26 -7
29 34 46 90 37 115 148 59 262 -45 91 -130 142 -242 143 -49 1 -63 4 -63 16 0
13 25 15 165 15 103 0 165 4 165 10 0 6 -118 10 -334 10 -213 0 -337 -4 -341
-10z m410 -62 c2 -7 6 -29 9 -49 15 -85 101 -170 196 -190 56 -12 62 -26 34
-80 -21 -41 -90 -71 -176 -77 -87 -6 -146 11 -199 56 -42 36 -89 119 -89 158
0 17 -13 25 -77 45 l-78 24 78 3 c42 2 77 7 77 12 0 5 13 25 30 43 28 32 67
49 140 60 46 8 51 7 55 -5z m55 4 c0 -10 -22 -32 -32 -32 -4 0 -8 9 -8 20 0
13 7 20 20 20 11 0 20 -4 20 -8z m40 -10 c0 -14 -59 -66 -67 -59 -3 4 6 21 22
37 28 30 45 38 45 22z m30 -20 c0 -14 -76 -83 -83 -75 -4 4 9 24 30 45 36 37
53 47 53 30z m-5 -62 c-26 -27 -53 -47 -58 -43 -12 7 73 93 92 93 9 0 -5 -20
-34 -50z m-531 11 c17 -19 17 -20 -11 -24 -27 -4 -27 -5 -5 -12 29 -10 28 -23
-3 -31 -31 -8 -55 10 -55 40 0 45 44 61 74 27z m596 5 c0 -8 -22 -33 -50 -56
-61 -51 -66 -32 -8 27 44 45 58 52 58 29z m-14 -74 c-25 -25 -49 -43 -53 -39
-9 10 78 98 90 90 5 -3 -11 -26 -37 -51z m25 -25 c-22 -23 -44 -38 -48 -34 -9
10 68 88 80 80 5 -3 -9 -24 -32 -46z m49 5 c0 -14 -56 -63 -63 -55 -4 3 5 19
20 35 27 28 43 35 43 20z m10 -51 c0 -14 -5 -18 -20 -14 -16 4 -18 8 -9 19 16
20 29 17 29 -5z m-128 -204 c21 -32 9 -37 -97 -37 -58 0 -105 2 -105 4 0 3 4
15 9 28 8 22 12 23 97 20 54 -2 92 -8 96 -15z"/>
<path d="M2200 1045 c0 -20 -5 -25 -24 -25 -27 0 -35 -13 -30 -50 1 -14 3 -28
3 -32 1 -5 12 -8 26 -8 20 0 25 -5 25 -26 0 -23 3 -25 38 -22 29 2 38 8 40 25
2 14 11 23 25 25 18 2 23 11 25 46 3 39 1 42 -22 42 -21 0 -26 5 -26 25 0 23
-4 25 -40 25 -36 0 -40 -2 -40 -25z m68 -17 c3 -22 9 -28 28 -28 19 0 24 -5
24 -25 0 -20 -5 -25 -25 -25 -20 0 -25 -5 -25 -25 0 -21 -5 -25 -30 -25 -25 0
-30 4 -30 25 0 20 -5 25 -25 25 -34 0 -37 47 -2 52 16 2 23 11 25 31 3 24 7
28 30 25 21 -2 28 -9 30 -30z"/>
<path d="M180 245 l0 -115 30 0 c29 0 30 1 30 50 l0 50 45 0 45 0 0 -50 c0
-49 1 -50 30 -50 l30 0 0 115 0 115 -30 0 c-28 0 -30 -2 -30 -40 l0 -40 -45 0
-45 0 0 40 c0 38 -2 40 -30 40 l-30 0 0 -115z"/>
<path d="M830 245 l0 -115 25 0 25 0 0 115 0 115 -25 0 -25 0 0 -115z"/>
<path d="M1050 245 l0 -115 25 0 c23 0 25 3 25 53 0 60 10 80 36 75 16 -3 20
-14 22 -66 3 -58 4 -62 27 -62 24 0 25 2 25 69 0 86 -15 106 -72 98 -38 -5
-38 -5 -38 29 0 30 -3 34 -25 34 l-25 0 0 -115z"/>
<path d="M2370 326 c0 -34 0 -34 -38 -29 -34 5 -42 1 -61 -23 -47 -59 -5 -165
59 -149 14 3 40 6 58 5 l32 -1 0 116 0 115 -25 0 c-22 0 -25 -4 -25 -34z m-12
-68 c13 -13 16 -56 6 -82 -8 -21 -50 -21 -58 0 -22 56 17 117 52 82z"/>
<path d="M2640 339 c0 -15 5 -20 22 -17 34 5 37 38 4 38 -20 0 -26 -5 -26 -21z"/>
<path d="M940 326 c0 -13 -7 -26 -15 -30 -8 -3 -15 -10 -15 -16 0 -5 7 -10 15
-10 12 0 15 -14 15 -65 0 -62 2 -66 27 -76 14 -5 32 -8 40 -5 18 7 17 36 -2
36 -12 0 -15 13 -15 55 0 42 3 55 15 55 8 0 15 7 15 15 0 8 -7 15 -15 15 -9 0
-15 9 -15 25 0 20 -5 25 -25 25 -20 0 -25 -5 -25 -24z"/>
<path d="M484 299 c-37 -10 -58 -47 -57 -97 2 -74 91 -108 149 -58 27 23 28
23 7 34 -16 9 -24 8 -33 -3 -18 -21 -57 -19 -70 5 -10 19 -8 20 55 20 62 0 65
1 65 24 0 29 -36 72 -65 79 -11 3 -34 1 -51 -4z m54 -41 c20 -20 14 -28 -23
-28 -22 0 -35 5 -35 13 0 28 36 37 58 15z"/>
<path d="M1299 299 c-53 -20 -67 -112 -23 -156 22 -22 32 -25 67 -20 47 6 78
35 52 49 -8 5 -23 3 -35 -4 -29 -18 -54 1 -58 44 -4 46 18 66 54 49 14 -6 32
-8 40 -3 13 7 12 11 -3 24 -24 22 -62 29 -94 17z"/>
<path d="M1817 300 c-41 -12 -56 -38 -57 -92 0 -39 4 -50 26 -67 36 -28 86
-27 120 3 27 23 28 23 7 34 -16 9 -24 8 -33 -3 -18 -21 -57 -19 -70 5 -10 19
-8 20 55 20 62 0 65 1 65 24 0 29 -36 72 -65 79 -11 3 -33 1 -48 -3z m51 -42
c20 -20 14 -28 -23 -28 -22 0 -35 5 -35 13 0 28 36 37 58 15z"/>
<path d="M2774 296 c-33 -14 -44 -38 -44 -94 0 -70 78 -105 135 -60 23 18 25
22 11 30 -9 5 -23 4 -36 -4 -29 -18 -54 1 -58 44 -4 46 18 67 52 48 24 -12 46
-7 46 10 0 10 -52 40 -67 40 -4 -1 -22 -7 -39 -14z"/>
<path d="M2973 303 c-60 -12 -85 -112 -38 -158 32 -33 91 -34 124 -3 22 20 23
22 6 34 -15 11 -20 11 -30 -2 -15 -21 -69 -15 -73 9 -3 15 5 17 57 17 l61 0 0
30 c0 28 -29 70 -49 70 -5 0 -15 2 -23 4 -7 2 -23 1 -35 -1z m55 -55 c3 -15
-4 -18 -32 -18 -38 0 -44 8 -24 28 17 17 52 11 56 -10z"/>
<path d="M3603 303 c-39 -7 -66 -52 -60 -101 5 -47 24 -68 72 -77 72 -15 124
45 104 119 -13 46 -58 69 -116 59z m57 -53 c22 -22 25 -42 10 -71 -12 -21 -50
-25 -68 -7 -17 17 -15 64 4 82 20 21 30 20 54 -4z"/>
<path d="M645 278 c-15 -22 -14 -23 6 -26 12 -2 26 1 32 7 6 6 19 11 30 11 32
0 15 -33 -20 -41 -45 -9 -63 -26 -63 -60 0 -36 34 -55 77 -44 15 5 38 7 51 6
21 -2 22 1 22 73 0 86 -8 96 -79 96 -30 0 -44 -6 -56 -22z m85 -88 c0 -24 -22
-35 -47 -25 -16 6 -16 8 6 26 30 24 41 24 41 -1z"/>
<path d="M1456 284 c-9 -8 -16 -20 -16 -25 0 -12 47 -12 55 1 10 15 45 12 45
-5 0 -8 -16 -19 -40 -25 -67 -18 -85 -49 -52 -90 16 -20 24 -22 58 -15 21 5
49 7 62 6 21 -2 22 1 22 68 0 50 -4 74 -16 85 -21 21 -97 21 -118 0z m84 -88
c0 -20 -27 -39 -45 -32 -21 8 -19 21 8 34 30 15 37 14 37 -2z"/>
<path d="M1640 214 c0 -83 0 -84 25 -84 22 0 24 4 27 58 3 48 7 59 26 67 12 5
22 17 22 26 0 12 -11 16 -50 17 l-50 1 0 -85z"/>
<path d="M2075 278 c-15 -22 -14 -23 6 -26 12 -2 26 1 32 7 6 6 19 11 30 11
32 0 15 -33 -20 -41 -45 -9 -63 -26 -63 -60 0 -36 34 -55 77 -44 15 5 38 7 51
6 21 -2 22 1 22 73 0 86 -8 96 -79 96 -30 0 -44 -6 -56 -22z m85 -88 c0 -24
-22 -35 -47 -25 -16 6 -16 8 6 26 30 24 41 24 41 -1z"/>
<path d="M2450 293 c0 -5 12 -43 26 -85 24 -72 28 -78 53 -78 25 0 29 6 50 73
13 39 26 78 28 85 3 7 -4 12 -20 12 -27 0 -31 -7 -43 -72 -3 -21 -10 -38 -14
-38 -4 0 -12 25 -19 55 -11 48 -15 55 -37 55 -13 0 -24 -3 -24 -7z"/>
<path d="M2640 215 c0 -84 0 -85 25 -85 25 0 25 1 25 85 0 84 0 85 -25 85 -25
0 -25 -1 -25 -85z"/>
<path d="M3229 279 c-13 -13 -19 -33 -19 -63 0 -58 35 -90 87 -80 25 5 33 3
33 -9 0 -8 -7 -20 -15 -27 -12 -10 -20 -9 -40 4 -33 22 -67 21 -63 -1 5 -26
48 -44 91 -39 63 7 67 16 67 131 l0 102 -61 1 c-47 1 -64 -3 -80 -19z m77 -17
c36 -23 20 -96 -19 -90 -17 2 -23 11 -25 36 -5 45 17 72 44 54z"/>
<path d="M3420 214 c0 -83 0 -84 25 -84 24 0 25 3 25 55 0 49 3 57 25 67 14 6
25 19 25 28 0 13 -10 17 -50 18 l-50 1 0 -85z"/>
<path d="M3760 232 c0 -86 18 -117 64 -108 17 4 46 6 64 6 l32 -1 0 86 c0 84
0 85 -25 85 -23 0 -24 -3 -27 -67 -3 -65 -4 -68 -28 -68 -24 0 -25 3 -28 68
-3 64 -4 67 -27 67 -24 0 -25 -2 -25 -68z"/>
<path d="M3970 178 c0 -118 0 -119 23 -116 17 2 23 11 25 36 3 28 6 31 26 26
57 -14 106 47 91 115 -10 47 -33 60 -103 59 l-62 -1 0 -119z m108 80 c7 -7 12
-26 12 -43 0 -55 -52 -78 -70 -30 -20 52 24 107 58 73z"/>
</g>
</svg>
